<svg width="15" height="15" viewBox="0 0 15 15" fill="none" xmlns="http://www.w3.org/2000/svg">
<path d="M7.93945 12.5977H8.81836V15H7.93945V12.5977Z" fill="#DDFFDF"/>
<path d="M6.18164 12.5977H7.06055V15H6.18164V12.5977Z" fill="#DDFFDF"/>
<path d="M10.459 0H4.54102C4.29832 0 4.10156 0.196758 4.10156 0.439453V15H5.30273V12.1582C5.30273 11.9155 5.49949 11.7188 5.74219 11.7188H9.25781C9.50051 11.7188 9.69727 11.9155 9.69727 12.1582V15H10.8984V0.439453C10.8984 0.196758 10.7017 0 10.459 0ZM6.18164 10.4004C6.18164 10.6431 5.98488 10.8398 5.74219 10.8398C5.49949 10.8398 5.30273 10.6431 5.30273 10.4004V9.52148C5.30273 9.27879 5.49949 9.08203 5.74219 9.08203C5.98488 9.08203 6.18164 9.27879 6.18164 9.52148V10.4004ZM6.18164 7.76367C6.18164 8.00637 5.98488 8.20312 5.74219 8.20312C5.49949 8.20312 5.30273 8.00637 5.30273 7.76367V6.88477C5.30273 6.64207 5.49949 6.44531 5.74219 6.44531C5.98488 6.44531 6.18164 6.64207 6.18164 6.88477V7.76367ZM7.93945 10.4004C7.93945 10.6431 7.7427 10.8398 7.5 10.8398C7.2573 10.8398 7.06055 10.6431 7.06055 10.4004V9.52148C7.06055 9.27879 7.2573 9.08203 7.5 9.08203C7.7427 9.08203 7.93945 9.27879 7.93945 9.52148V10.4004ZM7.93945 7.76367C7.93945 8.00637 7.7427 8.20312 7.5 8.20312C7.2573 8.20312 7.06055 8.00637 7.06055 7.76367V6.88477C7.06055 6.64207 7.2573 6.44531 7.5 6.44531C7.7427 6.44531 7.93945 6.64207 7.93945 6.88477V7.76367ZM9.69727 10.4004C9.69727 10.6431 9.50051 10.8398 9.25781 10.8398C9.01512 10.8398 8.81836 10.6431 8.81836 10.4004V9.52148C8.81836 9.27879 9.01512 9.08203 9.25781 9.08203C9.50051 9.08203 9.69727 9.27879 9.69727 9.52148V10.4004ZM9.69727 7.76367C9.69727 8.00637 9.50051 8.20312 9.25781 8.20312C9.01512 8.20312 8.81836 8.00637 8.81836 7.76367V6.88477C8.81836 6.64207 9.01512 6.44531 9.25781 6.44531C9.50051 6.44531 9.69727 6.64207 9.69727 6.88477V7.76367ZM6.18164 5.12695C6.18164 5.36965 5.98488 5.56641 5.74219 5.56641C5.49949 5.56641 5.30273 5.36965 5.30273 5.12695V4.24805C5.30273 4.00535 5.49949 3.80859 5.74219 3.80859C5.98488 3.80859 6.18164 4.00535 6.18164 4.24805V5.12695ZM7.93945 5.12695C7.93945 5.36965 7.7427 5.56641 7.5 5.56641C7.2573 5.56641 7.06055 5.36965 7.06055 5.12695V4.24805C7.06055 4.00535 7.2573 3.80859 7.5 3.80859C7.7427 3.80859 7.93945 4.00535 7.93945 4.24805V5.12695ZM9.69727 5.12695C9.69727 5.36965 9.50051 5.56641 9.25781 5.56641C9.01512 5.56641 8.81836 5.36965 8.81836 5.12695V4.24805C8.81836 4.00535 9.01512 3.80859 9.25781 3.80859C9.50051 3.80859 9.69727 4.00535 9.69727 4.24805V5.12695ZM6.18164 2.49023C6.18164 2.73293 5.98488 2.92969 5.74219 2.92969C5.49949 2.92969 5.30273 2.73293 5.30273 2.49023V1.61133C5.30273 1.36863 5.49949 1.17188 5.74219 1.17188C5.98488 1.17188 6.18164 1.36863 6.18164 1.61133V2.49023ZM7.93945 2.49023C7.93945 2.73293 7.7427 2.92969 7.5 2.92969C7.2573 2.92969 7.06055 2.73293 7.06055 2.49023V1.61133C7.06055 1.36863 7.2573 1.17188 7.5 1.17188C7.7427 1.17188 7.93945 1.36863 7.93945 1.61133V2.49023ZM9.69727 2.49023C9.69727 2.73293 9.50051 2.92969 9.25781 2.92969C9.01512 2.92969 8.81836 2.73293 8.81836 2.49023V1.61133C8.81836 1.36863 9.01512 1.17188 9.25781 1.17188C9.50051 1.17188 9.69727 1.36863 9.69727 1.61133V2.49023Z" fill="#DDFFDF"/>
<path d="M14.5605 5.85938H11.7773V15H14.5605C14.8032 15 15 14.8032 15 14.5605V6.29883C15 6.05613 14.8032 5.85938 14.5605 5.85938ZM13.8281 11.5723C13.8281 11.815 13.6314 12.0117 13.3887 12.0117C13.146 12.0117 12.9492 11.815 12.9492 11.5723V10.6934C12.9492 10.4507 13.146 10.2539 13.3887 10.2539C13.6314 10.2539 13.8281 10.4507 13.8281 10.6934V11.5723ZM13.8281 8.93555C13.8281 9.17824 13.6314 9.375 13.3887 9.375C13.146 9.375 12.9492 9.17824 12.9492 8.93555V8.05664C12.9492 7.81395 13.146 7.61719 13.3887 7.61719C13.6314 7.61719 13.8281 7.81395 13.8281 8.05664V8.93555Z" fill="#DDFFDF"/>
<path d="M0.439453 5.85938C0.196758 5.85938 0 6.05613 0 6.29883V14.5605C0 14.8032 0.196758 15 0.439453 15H3.22266V5.85938H0.439453ZM2.05078 11.5723C2.05078 11.815 1.85402 12.0117 1.61133 12.0117C1.36863 12.0117 1.17188 11.815 1.17188 11.5723V10.6934C1.17188 10.4507 1.36863 10.2539 1.61133 10.2539C1.85402 10.2539 2.05078 10.4507 2.05078 10.6934V11.5723ZM2.05078 8.93555C2.05078 9.17824 1.85402 9.375 1.61133 9.375C1.36863 9.375 1.17188 9.17824 1.17188 8.93555V8.05664C1.17188 7.81395 1.36863 7.61719 1.61133 7.61719C1.85402 7.61719 2.05078 7.81395 2.05078 8.05664V8.93555Z" fill="#DDFFDF"/>
</svg>
