<svg width="69" height="54" viewBox="0 0 69 54" fill="none" xmlns="http://www.w3.org/2000/svg">
<path d="M62.506 6.97972H34.6673L29.1224 0.306524C28.9569 0.105172 28.7089 -0.00774894 28.4503 0.00041399H6.04897C2.69583 0.0340861 -0.00386047 2.79673 4.14398e-06 6.19063V47.0053C-0.000163883 50.3965 2.69851 53.1552 6.04897 53.1887H62.506C65.8564 53.1552 68.5551 50.3965 68.5549 47.0053V13.1631C68.5551 9.77195 65.8564 7.01339 62.506 6.97972Z" fill="#90CB93"/>
<path d="M29.856 32.7378H23.064L21.864 36.1458H18.288L24.528 19.3938H28.392L34.608 36.1458H31.032L29.856 32.7378ZM28.944 30.1698L26.448 23.0178L23.952 30.1698H28.944ZM41.6424 22.6818C42.7624 22.6818 43.7224 22.9458 44.5224 23.4738C45.3224 24.0018 45.8904 24.7138 46.2264 25.6098V22.8498H49.5864V36.1458H46.2264V33.3618C45.8904 34.2578 45.3224 34.9778 44.5224 35.5218C43.7224 36.0498 42.7624 36.3138 41.6424 36.3138C40.5224 36.3138 39.5144 36.0418 38.6184 35.4978C37.7224 34.9538 37.0184 34.1698 36.5064 33.1458C36.0104 32.1058 35.7624 30.8898 35.7624 29.4978C35.7624 28.1058 36.0104 26.8978 36.5064 25.8738C37.0184 24.8338 37.7224 24.0418 38.6184 23.4978C39.5144 22.9538 40.5224 22.6818 41.6424 22.6818ZM42.6984 25.6338C41.6424 25.6338 40.7944 25.9778 40.1544 26.6658C39.5144 27.3538 39.1944 28.2978 39.1944 29.4978C39.1944 30.6978 39.5144 31.6418 40.1544 32.3298C40.7944 33.0018 41.6424 33.3378 42.6984 33.3378C43.7224 33.3378 44.5624 32.9938 45.2184 32.3058C45.8904 31.6018 46.2264 30.6658 46.2264 29.4978C46.2264 28.3138 45.8904 27.3778 45.2184 26.6898C44.5624 25.9858 43.7224 25.6338 42.6984 25.6338Z" fill="white"/>
</svg>
