<svg width="124" height="35" viewBox="0 0 124 35" fill="none" xmlns="http://www.w3.org/2000/svg">
<path d="M117.839 6.46527V13.2277H120.187V16.4975H117.839V22.5911C117.839 23.1856 117.985 23.6315 118.279 23.9287C118.572 24.226 119.013 24.3746 119.6 24.3746C119.893 24.3746 121.287 24.3746 121.287 24.3746V28.2389C121.287 28.2389 118.719 28.2389 118.352 28.2389C117.178 28.2389 115.711 28.016 114.683 27.0499C113.656 26.0838 113.216 24.8205 113.216 23.037V16.4232H111.088V13.1534H113.216V6.46527H117.839ZM104.118 28.5361C101.99 28.5361 100.156 27.793 98.9084 26.4554C97.5876 25.1177 97.0006 23.3342 97.0006 21.2535V20.7333C97.0006 18.4296 97.5876 16.5718 98.7615 15.0856C99.9355 13.6736 101.623 12.9305 103.824 12.9305C105.806 12.9305 107.42 13.525 108.52 14.714C109.694 15.9773 110.208 17.6122 110.208 19.693V22.1452H101.77V22.2195C101.843 23.037 102.21 23.5572 102.724 24.0774C103.237 24.5976 103.971 24.8205 104.778 24.8205C105.659 24.8205 106.319 24.7462 106.833 24.5976C107.346 24.4489 108.08 24.226 108.814 23.8545L109.914 26.7526C109.254 27.2728 108.447 27.6444 107.42 28.016C106.393 28.3875 105.219 28.5361 104.118 28.5361ZM103.751 16.4975C103.091 16.4975 102.577 16.7204 102.283 17.2406C101.99 17.7608 101.77 18.4296 101.696 19.1727L101.77 19.2471H105.732V18.8755C105.732 18.058 105.585 17.5379 105.292 17.1663C104.852 16.6462 104.411 16.4975 103.751 16.4975ZM88.6362 28.5361C86.5084 28.5361 84.6738 27.793 83.4267 26.4554C82.1796 25.1177 81.5189 23.3342 81.5189 21.2535V20.7333C81.5189 18.4296 82.1059 16.5718 83.2798 15.0856C84.4538 13.6736 86.1415 12.9305 88.3425 12.9305C90.324 12.9305 91.938 13.525 93.0387 14.714C94.139 15.903 94.726 17.6122 94.726 19.693V22.1452H86.2884V22.2195C86.3615 23.037 86.7285 23.5572 87.2422 24.0774C87.7555 24.5976 88.4894 24.8205 89.2964 24.8205C90.1771 24.8205 90.8372 24.7462 91.351 24.5976C91.8648 24.4489 92.5981 24.226 93.332 23.8545L94.4327 26.7526C93.7721 27.2728 92.9651 27.6444 91.938 28.016C90.9841 28.3875 89.8102 28.5361 88.6362 28.5361ZM88.3425 16.4975C87.6823 16.4975 87.1686 16.7204 86.8753 17.2406C86.5816 17.7608 86.3615 18.4296 86.2884 19.1727L86.3615 19.2471H90.324V18.8755C90.324 18.058 90.1771 17.5379 89.8834 17.1663C89.4433 16.6462 89.0032 16.4975 88.3425 16.4975ZM74.6222 21.848L76.2362 13.0791H80.4182L77.0433 28.1646H73.1545L70.7335 20.1388H70.6598L68.2387 28.1646H64.35L60.9014 13.1534H65.157L66.7711 21.9966H66.8443L69.1926 13.1534H72.1275L74.6222 21.848ZM55.1781 23.9287C55.1781 23.5572 54.958 23.1856 54.5179 22.8884C54.0778 22.5911 53.344 22.2939 52.2432 22.0709C50.5557 21.6994 49.235 21.1792 48.3545 20.5104C47.4741 19.7673 47.0338 18.8012 47.0338 17.5379C47.0338 16.2003 47.6208 15.0856 48.648 14.1195C49.7486 13.1534 51.2162 12.7818 53.0503 12.7818C54.958 12.7818 56.5721 13.2277 57.6728 14.1195C58.8468 15.0112 59.3605 16.1259 59.2869 17.6122V17.6865H54.8849C54.8849 17.092 54.738 16.6461 54.4442 16.3489C54.151 16.0516 53.6372 15.903 53.0503 15.903C52.537 15.903 52.1701 16.0516 51.8032 16.3489C51.4362 16.6461 51.2894 16.9434 51.2894 17.3892C51.2894 17.8351 51.5094 18.1324 51.8763 18.4296C52.2432 18.7269 53.0503 18.9498 54.151 19.1727C55.9119 19.5443 57.3059 20.0645 58.1129 20.7333C58.9936 21.4765 59.4337 22.4425 59.4337 23.7801C59.4337 25.1177 58.8468 26.2324 57.6728 27.1242C56.4989 28.016 54.958 28.4618 53.0503 28.4618C51.0693 28.4618 49.4551 27.9416 48.2811 26.9013C47.1072 25.8609 46.5936 24.7462 46.667 23.4086V23.3342H50.8493C50.8493 24.0774 51.0693 24.5976 51.5094 24.8205C51.95 25.0434 52.537 25.3407 53.1971 25.3407C53.8573 25.3407 54.2979 25.1921 54.5911 24.9692C55.0312 24.7462 55.1781 24.3746 55.1781 23.9287ZM35.2208 13.0791L35.3676 15.1599C35.8811 14.4168 36.4682 13.8223 37.1285 13.4507C37.8622 13.0048 38.5959 12.7818 39.4764 12.7818C40.8705 12.7818 42.0445 13.3021 42.8516 14.1938C43.6587 15.0856 44.0989 16.6461 44.0989 18.7269V28.1646H39.6231V18.8012C39.6231 17.9094 39.4764 17.3892 39.1096 17.0177C38.7427 16.6461 38.2291 16.4975 37.5687 16.4975C37.1285 16.4975 36.7616 16.5718 36.3948 16.7204C36.0279 16.8691 35.7344 17.092 35.5143 17.3892V28.2389H30.9652V13.1534H35.2208V13.0791ZM28.177 10.2553H23.5545V6.46527H28.177V10.2553ZM28.177 28.2389H23.5545V13.1534H28.177V28.2389ZM13.4291 28.2389V16.3489H11.3013V13.0791H13.4291V11.5185C13.4291 9.80936 13.9427 8.47175 14.8965 7.50569C15.9238 6.53964 17.4646 6.31667 18.5652 6.31667C18.9321 6.31667 21.5001 6.31667 21.5001 6.31667V10.1066C21.5001 10.1066 20.106 10.1066 19.8125 10.1066C19.2256 10.1066 18.7853 10.2553 18.4918 10.5525C18.1983 10.8497 18.0516 11.2956 18.0516 11.8901V13.0048H20.9131V16.2745H18.0516V28.0902H13.4291V28.2389ZM4.62436 7.72861C4.62436 3.19554 6.97227 2.82397 10.9344 2.82397V6.391C9.10009 6.391 8.36636 6.68824 8.36636 7.80294V13.6736C8.36636 15.0112 8.43974 16.4232 7.33914 17.3149C8.43974 18.2067 8.36636 19.5443 8.36636 20.9562V26.8269C8.36636 28.016 9.10009 28.2389 10.9344 28.2389V31.8059C6.97227 31.8059 4.62436 31.4343 4.62436 26.9013V20.9562C4.62436 19.9902 4.62436 18.9498 2.79004 18.9498V17.3892V15.8287C4.62436 15.8287 4.62436 14.714 4.62436 13.8223V7.72861Z" fill="#394149"/>
</svg>
